<svg width="30" height="31" viewBox="0 0 30 31" fill="none" xmlns="http://www.w3.org/2000/svg">
<g clip-path="url(#clip0_651_1512)">
<path d="M27.5 14.3498V15.4998C27.4985 18.1954 26.6256 20.8182 25.0117 22.9771C23.3977 25.136 21.1291 26.7154 18.5442 27.4797C15.9593 28.244 13.1966 28.1522 10.6681 27.2181C8.1396 26.2839 5.98082 24.5575 4.5137 22.2962C3.04658 20.0349 2.34974 17.3599 2.5271 14.6702C2.70445 11.9805 3.74651 9.42024 5.49785 7.37117C7.24919 5.3221 9.61598 3.89406 12.2452 3.30001C14.8745 2.70597 17.6253 2.97775 20.0875 4.07483M27.5 5.49983L15 18.0123L11.25 14.2623" stroke="#22BE15" stroke-width="4" stroke-linecap="round" stroke-linejoin="round"/>
</g>
<defs>
<clipPath id="clip0_651_1512">
<rect width="30" height="30" fill="white" transform="translate(0 0.5)"/>
</clipPath>
</defs>
</svg>
