<?xml version="1.0" encoding="UTF-8"?>
<svg xmlns="http://www.w3.org/2000/svg" xmlns:xlink="http://www.w3.org/1999/xlink" width="0" height="0">
<symbol id="username" width="26" height="24" viewBox="0 0 26 24" fill="none"><g><path id="Vector" d="M21.0102 22H18.957V20C18.957 18.3431 17.5782 17 15.8773 17H9.71776C8.01686 17 6.63801 18.3431 6.63801 20V22H4.58484V20C4.58484 17.2386 6.88293 15 9.71776 15H15.8773C18.7121 15 21.0102 17.2386 21.0102 20V22ZM12.7975 13C9.39571 13 6.63801 10.3137 6.63801 7C6.63801 3.68629 9.39571 1 12.7975 1C16.1993 1 18.957 3.68629 18.957 7C18.957 10.3137 16.1993 13 12.7975 13ZM12.7975 11C15.0653 11 16.9038 9.20914 16.9038 7C16.9038 4.79086 15.0653 3 12.7975 3C10.5296 3 8.69117 4.79086 8.69117 7C8.69117 9.20914 10.5296 11 12.7975 11Z" fill="#1C1C1C"/></g></symbol><symbol id="password" width="26" height="24" viewBox="0 0 26 24" fill="none"><g><path id="Vector" d="M6.63804 8V7C6.63804 3.68629 9.39574 1 12.7975 1C16.1993 1 18.957 3.68629 18.957 7V8H21.0102C21.5772 8 22.0368 8.44772 22.0368 9V21C22.0368 21.5523 21.5772 22 21.0102 22H4.58487C4.01791 22 3.55829 21.5523 3.55829 21V9C3.55829 8.44772 4.01791 8 4.58487 8H6.63804ZM19.9836 10H5.61146V20H19.9836V10ZM11.771 15.7324C11.1573 15.3866 10.7444 14.7403 10.7444 14C10.7444 12.8954 11.6636 12 12.7975 12C13.9315 12 14.8507 12.8954 14.8507 14C14.8507 14.7403 14.4378 15.3866 13.8241 15.7324V18H11.771V15.7324ZM8.69121 8H16.9039V7C16.9039 4.79086 15.0654 3 12.7975 3C10.5297 3 8.69121 4.79086 8.69121 7V8Z" fill="#1C1C1C"/></g></symbol></svg>
